<?xml version="1.0" standalone="no"?>
<!DOCTYPE svg PUBLIC "-//W3C//DTD SVG 20010904//EN"
 "http://www.w3.org/TR/2001/REC-SVG-20010904/DTD/svg10.dtd">
<svg version="1.0" xmlns="http://www.w3.org/2000/svg"
 width="659.000000pt" height="650.000000pt" viewBox="0 0 659.000000 650.000000"
 preserveAspectRatio="xMidYMid meet">

<g transform="translate(0.000000,650.000000) scale(0.100000,-0.100000)"
fill="#000000" stroke="none">
<path d="M0 3250 l0 -3250 3295 0 3295 0 0 3250 0 3250 -3295 0 -3295 0 0
-3250z m2307 2070 l38 -110 46 0 47 0 26 73 c14 39 32 90 39 112 14 39 14 39
63 37 63 -4 144 -17 267 -44 l97 -21 0 -122 0 -123 41 -16 c23 -10 45 -13 49
-9 4 4 39 47 79 95 l73 87 51 -26 c83 -41 208 -114 259 -151 l47 -33 -31 -82
c-57 -153 -56 -144 -18 -176 l34 -28 102 60 c70 40 107 56 117 50 23 -13 126
-130 196 -222 55 -72 61 -84 49 -99 -7 -9 -41 -50 -75 -90 -35 -40 -63 -77
-63 -82 0 -5 9 -24 20 -43 23 -38 4 -38 187 -3 l71 13 31 -67 c16 -37 44 -108
62 -159 24 -70 36 -91 50 -91 10 0 42 -9 71 -21 47 -18 53 -19 64 -5 16 22
166 23 184 1 14 -17 135 -22 145 -5 3 6 46 10 95 10 49 0 92 -4 95 -10 8 -12
122 -13 129 -1 10 15 90 22 272 22 188 1 194 -1 194 -48 0 -22 4 -23 81 -23
60 0 85 -4 93 -14 9 -12 74 -17 345 -25 184 -6 370 -11 413 -11 69 0 78 -2 78
-18 0 -18 -16 -19 -226 -26 -222 -6 -227 -7 -256 -31 -18 -16 -42 -25 -63 -25
-20 0 -35 -6 -39 -15 -4 -12 -29 -15 -131 -15 -77 0 -125 -4 -125 -10 0 -6
-33 -10 -80 -10 -66 0 -80 -3 -80 -16 0 -8 -22 -49 -49 -90 l-50 -75 40 -40
c36 -36 39 -43 39 -96 0 -51 -4 -61 -32 -90 l-32 -33 -157 0 -157 0 -10 29
c-6 16 -8 32 -5 35 4 3 66 6 140 6 l133 0 0 63 c0 40 5 70 16 85 l15 22 -90 0
c-73 0 -91 -3 -91 -14 0 -8 -4 -17 -9 -20 -5 -4 -9 29 -8 76 l2 83 120 2 c66
1 128 2 138 2 11 1 17 9 17 26 l0 25 -129 0 c-125 0 -129 -1 -136 -22 l-8 -23
-4 21 c-7 35 -40 36 -79 2 -32 -28 -34 -34 -34 -92 0 -56 3 -65 29 -90 28 -27
32 -28 136 -27 81 1 106 -2 103 -11 -4 -10 -50 -14 -177 -16 -167 -2 -172 -3
-180 -25 -9 -22 -40 -55 -53 -56 -5 -1 -12 -1 -18 -1 -5 0 -10 -4 -10 -8 0 -5
14 -7 30 -4 29 4 30 3 30 -32 l0 -36 -118 0 c-65 0 -121 3 -125 6 -3 3 -1 18
4 34 11 29 44 40 134 44 l40 1 3 143 3 142 29 0 c25 0 30 4 30 25 l0 25 -114
0 c-106 0 -115 -2 -121 -20 -9 -28 0 -38 30 -32 l25 4 0 -146 0 -147 -37 3
c-34 3 -40 8 -60 51 -22 44 -25 47 -62 47 -22 0 -41 5 -44 13 -2 6 -8 8 -13 4
-13 -12 28 -119 48 -125 19 -5 21 -14 12 -50 -6 -21 -11 -23 -63 -20 l-56 3
-35 82 c-34 79 -36 83 -67 83 -30 0 -33 -3 -33 -31 0 -21 -8 -37 -24 -50 -15
-12 -26 -32 -28 -52 -3 -32 -4 -32 -60 -35 -56 -3 -58 -2 -58 23 0 23 -3 25
-51 25 -46 0 -50 -2 -47 -22 3 -21 -1 -23 -55 -26 -53 -3 -58 -1 -67 22 -9 26
-11 26 -120 26 -109 0 -111 0 -120 -25 -9 -23 -15 -25 -70 -25 -58 0 -60 1
-54 24 5 21 1 24 -33 29 -21 4 -82 7 -136 7 -92 0 -98 -1 -107 -22 -6 -15 -9
48 -9 180 l-1 202 -60 0 -60 0 0 -205 0 -205 103 0 c57 0 107 -3 111 -7 3 -4
-14 -19 -39 -35 -41 -26 -53 -28 -140 -28 -52 0 -95 -2 -95 -5 0 -3 20 -37 45
-77 25 -40 45 -76 45 -80 0 -5 -9 -8 -20 -8 -11 0 -20 -6 -21 -12 0 -10 -2
-10 -6 0 -2 6 -20 12 -39 12 l-34 0 0 -95 0 -95 82 0 c75 0 84 2 110 27 38 36
40 93 4 93 -38 0 -62 52 -56 120 l5 55 38 3 37 3 0 -90 0 -91 30 0 c28 0 30 3
30 35 l0 35 69 0 70 0 3 53 3 52 38 3 38 3 -3 -83 -3 -83 -32 3 c-31 3 -32 3
-35 -45 -3 -48 -3 -48 -38 -48 -30 0 -35 3 -36 25 -3 65 -4 70 -21 70 -38 -1
-53 -25 -53 -84 l0 -56 83 0 c80 0 85 1 110 30 20 22 27 41 27 70 0 39 1 40
35 40 l35 0 0 -70 0 -70 114 0 c66 0 117 -4 121 -10 3 -5 46 -10 95 -10 84 0
90 1 106 25 13 20 25 25 55 25 28 0 39 -4 39 -15 0 -12 15 -15 75 -15 73 0 75
-1 75 -25 0 -22 4 -25 35 -25 31 0 35 3 35 25 0 23 3 25 48 25 60 0 89 26 94
85 3 38 5 40 40 43 31 3 37 0 41 -20 2 -13 5 10 6 50 0 42 -3 72 -9 72 -5 0
-10 9 -10 19 0 11 5 23 10 26 6 3 10 19 10 36 0 27 2 29 40 29 36 0 40 -3 40
-25 0 -33 20 -75 36 -75 9 0 14 -19 17 -57 l3 -58 2 68 c2 54 -1 67 -13 67 -8
0 -15 9 -15 20 0 13 7 20 20 20 13 0 20 7 20 20 0 17 7 20 41 20 36 0 40 -2
34 -20 -6 -18 -2 -20 40 -20 l46 0 -3 -160 -3 -160 56 0 56 0 21 48 21 47 -25
3 c-16 2 -24 10 -24 23 0 18 9 19 190 19 183 0 190 -1 190 -20 0 -19 -7 -20
-123 -20 l-123 0 -17 -35 c-9 -20 -17 -40 -17 -45 0 -6 41 -10 95 -10 52 0 95
4 95 9 0 5 -4 21 -10 35 -9 25 -8 26 29 26 31 0 40 -5 49 -25 25 -56 27 -55
-168 -55 -153 0 -180 -2 -180 -15 0 -13 27 -15 179 -15 150 0 180 2 185 15 6
18 59 19 399 8 171 -5 217 -9 217 -20 0 -10 -24 -13 -103 -13 -57 0 -159 -3
-227 -7 l-123 -6 -11 -29 c-10 -27 -13 -28 -78 -28 -54 0 -68 -3 -68 -15 0
-13 -25 -15 -162 -15 -90 0 -200 -3 -245 -7 l-83 -6 0 -41 c0 -23 -3 -65 -6
-93 l-7 -53 -223 0 -224 0 0 25 0 25 -276 0 c-235 0 -283 -3 -324 -17 l-48
-17 50 -58 50 -58 -43 -58 c-45 -61 -121 -150 -187 -220 l-40 -42 -63 38 c-35
21 -83 49 -105 62 l-42 23 -36 -28 -35 -27 20 -51 c12 -29 31 -80 44 -114 l24
-63 -72 -48 c-104 -70 -263 -154 -285 -150 -11 2 -51 41 -89 88 -71 87 -76 90
-129 70 -23 -9 -24 -12 -24 -133 l0 -124 -67 -16 c-91 -21 -237 -45 -297 -49
l-50 -2 -18 49 c-9 28 -27 78 -38 112 l-22 63 -47 0 -47 0 -37 -113 -37 -113
-83 8 c-83 8 -272 43 -310 57 -19 7 -20 15 -18 128 l2 119 -43 18 -43 17 -23
-28 c-13 -15 -46 -56 -74 -90 -27 -35 -57 -63 -66 -63 -35 1 -352 182 -352
202 0 4 18 55 40 115 l39 108 -26 27 c-15 16 -32 28 -37 28 -6 0 -56 -27 -111
-60 l-100 -61 -74 78 c-75 81 -191 227 -191 243 0 5 28 42 63 82 98 114 92
102 67 143 -12 19 -26 35 -32 35 -6 0 -60 -9 -120 -21 -60 -11 -111 -19 -112
-17 -25 30 -136 342 -136 379 0 7 46 39 101 69 l100 55 -4 43 c-3 24 -6 45 -9
47 -2 2 -54 12 -116 23 -62 10 -115 22 -119 25 -10 11 -16 257 -9 340 l7 75
109 17 c59 9 113 21 120 25 6 4 14 25 17 47 l5 41 -101 56 c-73 42 -101 62
-101 76 0 27 65 218 102 301 35 79 31 77 151 54 113 -22 122 -20 147 20 l22
35 -76 89 c-42 49 -76 94 -76 99 0 30 237 312 262 312 5 0 52 -25 104 -56 100
-59 115 -61 152 -21 l21 23 -39 102 c-22 57 -40 108 -40 115 0 21 280 189 347
209 6 2 46 -39 88 -90 57 -68 82 -91 94 -86 9 3 29 11 45 16 l29 11 -6 119 -5
119 26 10 c60 23 363 72 384 62 3 -2 24 -53 45 -113z m1293 -1965 c0 -24 -2
-25 -67 -25 -36 0 -63 3 -60 7 22 22 67 42 95 42 28 1 32 -2 32 -24z m870
-125 c0 -17 7 -20 53 -21 100 -2 92 6 95 -86 l4 -83 -41 0 c-40 0 -40 0 -43
-42 -3 -40 -5 -43 -35 -46 -33 -3 -33 -3 -33 43 0 42 -2 46 -22 43 -14 -2 -29
-18 -42 -45 l-21 -41 3 104 4 104 -31 0 -31 0 0 -98 c0 -93 1 -100 23 -110 18
-9 12 -11 -41 -11 l-63 -1 3 133 3 132 40 1 c90 3 93 4 98 24 4 15 14 20 41
20 29 0 36 -4 36 -20z m988 -31 c40 -47 37 -68 -9 -64 -22 2 -43 13 -61 34
-25 28 -33 31 -87 31 -55 0 -62 -2 -84 -31 -18 -23 -34 -32 -60 -34 -52 -5
-56 20 -10 67 l37 38 121 0 120 0 33 -41z m-408 -83 c0 -11 3 -58 6 -102 5
-59 3 -83 -6 -89 -22 -14 -30 18 -30 122 0 87 2 102 15 97 8 -4 15 -16 15 -28z
m430 -26 c0 -19 -7 -20 -180 -20 -173 0 -180 1 -180 20 0 19 7 20 180 20 173
0 180 -1 180 -20z m-1540 -17 c0 -16 -11 -39 -27 -55 -22 -23 -35 -28 -75 -28
-41 0 -50 4 -70 30 -12 17 -28 30 -35 30 -7 0 -13 11 -13 25 l0 25 110 0 110
0 0 -27z m250 7 c0 -18 -7 -20 -55 -20 l-55 0 0 -75 0 -75 -40 0 -40 0 0 95 0
95 95 0 c88 0 95 -1 95 -20z m-895 -75 l0 -50 -35 0 -35 0 -3 53 -3 53 38 -3
38 -3 0 -50z m605 -40 c0 -11 -12 -15 -49 -15 -47 0 -68 9 -54 24 3 3 28 6 55
6 36 0 48 -4 48 -15z m40 -27 c0 -12 -1 -19 -3 -17 -1 2 -9 12 -16 22 -12 14
-11 17 3 17 10 0 16 -8 16 -22z"/>
<path d="M2285 4994 c-383 -40 -679 -177 -936 -433 -152 -151 -253 -304 -333
-501 -14 -35 -26 -65 -26 -67 0 -2 25 -3 55 -3 40 0 57 -4 61 -15 5 -11 22
-15 70 -15 60 0 65 2 74 25 9 23 14 25 78 25 l68 0 18 55 c16 53 18 55 52 55
18 0 34 5 34 10 0 6 -7 10 -16 10 -12 0 -14 5 -9 18 4 9 10 29 13 45 2 15 8
30 13 33 5 3 9 14 9 25 0 10 5 19 10 19 6 0 10 11 10 25 0 14 5 25 10 25 6 0
10 23 10 50 0 38 4 50 15 50 13 0 15 -18 14 -109 -1 -59 1 -113 5 -120 4 -6
26 -11 49 -11 32 0 45 -5 55 -21 10 -16 10 -24 1 -35 -10 -12 7 -14 115 -14
l125 0 16 -30 c9 -17 11 -30 5 -30 -5 0 -10 -9 -10 -20 0 -18 -7 -20 -70 -20
-95 0 -89 -18 6 -22 l77 -3 29 -77 29 -76 64 1 c50 2 65 5 65 17 1 33 26 50
74 50 40 0 48 4 58 25 7 16 19 25 34 25 18 0 30 14 56 63 l33 62 130 3 130 2
17 -30 17 -30 125 0 126 0 20 -40 c19 -36 24 -40 60 -40 32 0 42 -5 60 -30 20
-28 26 -30 86 -30 35 0 64 3 64 8 0 4 11 20 25 35 19 20 35 27 62 27 29 0 42
7 73 43 l38 42 171 3 c94 2 171 6 171 9 0 3 -18 44 -40 91 -83 176 -204 340
-343 463 -212 188 -440 303 -712 358 -97 20 -309 33 -390 25z"/>
<path d="M1364 3728 c-32 -28 -34 -34 -34 -89 0 -50 4 -64 26 -89 26 -29 29
-29 138 -32 l111 -3 3 -62 3 -63 -136 0 c-75 0 -135 -4 -135 -9 0 -39 8 -41
171 -41 l159 0 30 33 c24 26 29 41 30 82 0 43 -4 54 -35 85 l-34 35 -99 -3
c-91 -3 -100 -5 -110 -25 -9 -17 -11 -4 -9 63 l2 85 138 3 137 3 0 24 0 25
-129 0 c-125 0 -129 -1 -136 -22 l-8 -23 -4 21 c-7 35 -40 36 -79 2z"/>
<path d="M4283 3752 l-53 -3 0 -185 0 -184 49 0 c28 0 53 5 57 12 4 6 7 33 6
60 -1 45 1 48 24 48 16 0 35 11 51 30 18 23 33 30 59 30 24 0 34 5 34 15 0 10
10 15 30 15 17 0 30 -3 30 -7 0 -5 7 -17 15 -27 25 -33 45 -4 45 68 0 57 -3
65 -33 94 -33 32 -34 32 -134 32 -96 0 -102 -1 -109 -22 l-8 -23 -5 25 c-6 23
-10 25 -58 22z m227 -107 c0 -55 0 -55 -30 -55 -18 0 -33 -6 -36 -15 -4 -11
-21 -15 -55 -15 l-49 0 0 63 c0 35 3 67 7 70 3 4 42 7 85 7 l78 0 0 -55z"/>
<path d="M1836 3734 c-13 -35 -7 -39 61 -39 l68 0 3 -175 c1 -96 6 -177 11
-180 5 -3 32 -3 60 -2 l51 4 0 179 0 179 70 0 c68 0 70 1 70 25 l0 25 -194 0
c-168 0 -195 -2 -200 -16z"/>
<path d="M2330 3545 l0 -205 170 0 c97 0 170 4 170 9 0 5 3 16 6 25 5 14 -8
16 -110 16 l-116 0 0 65 c0 47 4 65 13 64 6 -1 55 -1 108 0 l96 1 -5 25 c-4
25 -6 25 -98 25 -89 0 -95 -1 -104 -22 -6 -17 -9 2 -9 65 l-1 87 115 0 115 0
0 25 0 25 -105 0 c-100 0 -106 -1 -115 -22 l-9 -23 0 23 c-1 20 -6 22 -61 22
l-60 0 0 -205z"/>
<path d="M2800 3545 l0 -205 55 0 c30 -1 110 -1 178 -1 l122 -1 3 26 3 26
-115 0 c-111 0 -115 -1 -119 -22 -2 -13 -5 68 -6 180 l-1 202 -60 0 -60 0 0
-205z"/>
<path d="M3726 3578 c-32 -95 -61 -178 -63 -185 -4 -10 10 -13 55 -13 44 0 61
4 66 15 4 12 25 15 95 15 77 0 90 2 94 18 3 12 7 9 17 -15 12 -32 13 -33 72
-33 44 0 59 3 56 13 -3 6 -31 90 -62 185 l-58 172 -106 0 -107 0 -59 -172z
m244 -110 c0 -4 -36 -8 -80 -8 -44 0 -80 3 -80 8 0 6 57 173 76 222 5 12 84
-197 84 -222z"/>
<path d="M940 3252 c0 -30 38 -171 67 -247 128 -341 398 -642 722 -805 244
-122 539 -178 801 -150 279 29 538 130 760 296 68 51 250 230 250 245 0 5 -77
9 -171 9 l-171 0 -31 -70 -31 -70 -146 0 -147 0 -30 -77 -30 -78 -112 -3 c-68
-2 -111 1 -111 7 0 6 -14 39 -31 75 -27 57 -35 65 -62 68 -26 3 -37 13 -71 71
-34 56 -45 67 -67 67 -33 0 -166 78 -174 103 -5 14 -19 17 -83 17 -74 0 -78 1
-89 27 -8 16 -13 68 -13 126 0 115 7 126 78 127 23 0 42 5 42 10 0 6 16 10 35
10 19 0 35 3 35 6 0 3 -18 37 -40 74 l-41 69 -112 3 -112 3 -3 46 c-2 39 -7
48 -25 53 -12 3 -217 6 -454 6 -414 0 -433 -1 -433 -18z"/>
<path d="M2430 3055 l0 -145 40 0 40 0 1 118 c1 125 0 127 35 -35 l16 -73 58
0 58 0 17 93 c27 141 34 144 34 14 l1 -118 38 3 37 3 3 143 3 142 -79 0 -79 0
-13 -90 c-7 -50 -16 -93 -20 -95 -4 -3 -13 30 -19 73 -19 120 -12 112 -97 112
l-74 0 0 -145z"/>
<path d="M4916 3109 c-3 -34 -6 -87 -7 -118 0 -31 -3 -50 -6 -43 -2 6 -11 12
-19 12 -8 0 -17 7 -20 15 -4 8 -12 15 -20 15 -10 0 -14 -13 -14 -45 0 -33 -4
-45 -15 -45 -8 0 -15 -9 -15 -20 0 -17 7 -20 50 -20 l50 0 0 35 c0 34 13 47
23 23 3 -7 6 47 6 120 1 72 -1 132 -3 132 -2 0 -6 -28 -10 -61z"/>
<path d="M4781 3068 c2 -77 6 -69 11 20 2 28 0 52 -4 52 -5 0 -7 -33 -7 -72z"/>
<path d="M2880 3027 c0 -98 18 -117 111 -117 86 0 109 21 109 99 0 43 -4 56
-22 72 -26 21 -97 26 -116 7 -9 -9 -12 -9 -12 0 0 7 -14 12 -35 12 l-35 0 0
-73z m150 -16 c0 -56 -8 -65 -50 -56 -28 6 -30 9 -30 56 l0 49 40 0 40 0 0
-49z"/>
<path d="M3523 3053 c9 -2 25 -2 35 0 9 3 1 5 -18 5 -19 0 -27 -2 -17 -5z"/>
<path d="M4700 2925 l0 -65 40 0 40 0 1 48 c0 26 3 41 6 35 10 -26 33 -13 33
17 0 33 -25 43 -33 13 -4 -17 -5 -17 -6 0 -1 13 -10 17 -41 17 l-40 0 0 -65z"/>
<path d="M4910 2881 c0 -16 6 -21 29 -21 16 0 34 7 41 15 11 13 8 15 -13 15
-14 0 -32 3 -41 6 -12 4 -16 0 -16 -15z"/>
<path d="M4470 3100 l0 -60 35 0 35 0 0 60 0 60 -35 0 -35 0 0 -60z"/>
<path d="M3794 3035 c0 -17 3 -22 10 -15 6 6 20 10 33 10 14 0 23 6 23 15 0
10 -10 15 -33 15 -29 0 -33 -3 -33 -25z"/>
</g>
</svg>
